# xmcd
#
# Track frame offsets: 
#        150
#        25812
#        56782
#        84240
#        120577
#        155422
#
# Disc length: 2533 seconds
#
# Revision: 2
# Processed by: cddbd v1.5.2PL0 Copyright (c) Steve Scherf et al.
# Submitted via: ExactAudioCopy v1.0b3
#
DISCID=4009e306
DTITLE=Erik Berglund - Angel Flight
DYEAR=1995
DGENRE=New Age
TTITLE0=Angel Call
TTITLE1=Reunion
TTITLE2=Remembrance
TTITLE3=Alignment
TTITLE4=Angel Flight
TTITLE5=Journey Home
EXTD=YEAR: 1995 ID3G: 10
EXTT0=
EXTT1=
EXTT2=
EXTT3=
EXTT4=
EXTT5=
PLAYORDER=
